<svg version="1" xmlns="http://www.w3.org/2000/svg" width="762.667" height="762.667" viewBox="0 0 572.000000 572.000000"><path d="M229 82.1c-30 11.5-66.4 25.5-81 31.1-14.6 5.6-31 11.9-36.5 14-5.5 2.2-13.4 5.2-17.5 6.8-30.2 11.4-62.7 23.9-67.5 25.9-6.3 2.7-21.2 8.1-22.3 8.1-.9 0-1.2 23.6-1.2 110v110.1l7.5 3.4c4.1 1.9 7.7 3.5 8 3.5.2 0 3.4 1.3 6.9 3 3.6 1.6 9.2 4.1 12.5 5.5 3.3 1.4 8.4 3.6 11.3 4.9 2.9 1.3 30.3 13.3 60.8 26.6 71.4 31.2 78.5 34.3 90.5 39.5 5.5 2.4 13 5.7 16.7 7.4 3.7 1.7 9.6 4.2 13 5.7 3.5 1.4 8.1 3.5 10.3 4.5 2.2 1 13.4 5.9 24.8 10.9l20.9 9 22.1-9.6c12.2-5.4 25-11 28.4-12.6 3.4-1.5 6.4-2.8 6.7-2.8.3 0 2.9-1.1 5.8-2.4 2.9-1.3 13.2-5.9 22.8-10.1 9.6-4.2 19.3-8.4 21.5-9.4 7-3.1 46.2-20.3 111.5-48.9l63.5-27.8V168.6l-14-5.3c-7.7-2.9-24.1-9.2-36.5-13.9-12.4-4.7-23.4-8.9-24.5-9.4-1.1-.5-4.7-1.9-8-3-3.3-1.2-6.9-2.6-8-3.1-1.1-.5-5.1-2-9-3.5-3.8-1.4-9.7-3.6-13-4.9-9.5-3.7-74.4-28.6-81-31-3.3-1.2-17.5-6.6-31.5-12s-28.4-10.9-32-12.2c-3.6-1.3-10.4-4-15.2-5.9-4.9-1.9-9.6-3.4-10.5-3.3-1 0-26.3 9.5-56.3 21z"/></svg>