<svg version="1" xmlns="http://www.w3.org/2000/svg" width="678.667" height="678.667" viewBox="0 0 509.000000 509.000000"><path d="M205.5 85.6c-25.9 9.5-59.1 21.8-74 27.3C44.6 145 6.2 159.2 3.8 160.1L1 161.2v187.3l126.4 46.7 126.4 46.6 51.4-18.8c28.2-10.4 63-23.1 77.3-28.3 14.3-5.3 48.4-17.8 75.7-27.9l49.8-18.3-.3-93.8-.2-93.9-125.9-46.4C312.3 88.9 255 68 254.1 68.1c-.9.1-22.7 7.9-48.6 17.5zm103.4 12.6c9.6 3.6 16.8 6.7 16 7-.8.3-17.5 6.5-37.1 13.7L252 132.1l-24.7-9.1c-13.5-5-25.2-9.4-25.9-9.8-.8-.4 13.9-6.4 35.4-14.3l36.7-13.5 9 3.2c5 1.8 16.8 6.1 26.4 9.6z"/></svg>